<mxfile host="65bd71144e">
    <diagram id="yfExacgagEulNkTRiZS8" name="Page-1">
        <mxGraphModel dx="626" dy="724" grid="1" gridSize="10" guides="1" tooltips="1" connect="1" arrows="1" fold="1" page="1" pageScale="1" pageWidth="850" pageHeight="1100" math="0" shadow="0">
            <root>
                <mxCell id="0"/>
                <mxCell id="1" parent="0"/>
                <mxCell id="2" style="edgeStyle=none;html=1;exitX=0.5;exitY=1;exitDx=0;exitDy=0;endArrow=none;endFill=0;dashed=1;" edge="1" parent="1" source="3">
                    <mxGeometry relative="1" as="geometry">
                        <mxPoint x="344" y="890" as="targetPoint"/>
                    </mxGeometry>
                </mxCell>
                <mxCell id="3" value="Web App" style="whiteSpace=wrap;html=1;" vertex="1" parent="1">
                    <mxGeometry x="303.75" y="180" width="80" height="40" as="geometry"/>
                </mxCell>
                <mxCell id="4" style="edgeStyle=none;html=1;exitX=0.5;exitY=1;exitDx=0;exitDy=0;endArrow=none;endFill=0;dashed=1;" edge="1" parent="1" source="5">
                    <mxGeometry relative="1" as="geometry">
                        <mxPoint x="667" y="880" as="targetPoint"/>
                    </mxGeometry>
                </mxCell>
                <mxCell id="5" value="Database" style="whiteSpace=wrap;html=1;" vertex="1" parent="1">
                    <mxGeometry x="626.87" y="180" width="80" height="40" as="geometry"/>
                </mxCell>
                <mxCell id="6" style="edgeStyle=none;html=1;exitX=0.5;exitY=1;exitDx=0;exitDy=0;endArrow=none;endFill=0;dashed=1;" edge="1" parent="1" source="7">
                    <mxGeometry relative="1" as="geometry">
                        <mxPoint x="507" y="880" as="targetPoint"/>
                    </mxGeometry>
                </mxCell>
                <mxCell id="7" value="Server" style="whiteSpace=wrap;html=1;" vertex="1" parent="1">
                    <mxGeometry x="466.87" y="180" width="80" height="40" as="geometry"/>
                </mxCell>
                <mxCell id="8" style="edgeStyle=none;html=1;endArrow=none;endFill=0;dashed=1;" edge="1" parent="1" source="9">
                    <mxGeometry relative="1" as="geometry">
                        <mxPoint x="210" y="890" as="targetPoint"/>
                        <mxPoint x="253.75" y="230" as="sourcePoint"/>
                    </mxGeometry>
                </mxCell>
                <mxCell id="9" value="Employee" style="shape=umlActor;verticalLabelPosition=bottom;verticalAlign=top;html=1;outlineConnect=0;" vertex="1" parent="1">
                    <mxGeometry x="193.75" y="140" width="30" height="60" as="geometry"/>
                </mxCell>
                <mxCell id="26" value="" style="rounded=0;whiteSpace=wrap;html=1;rotation=90;" vertex="1" parent="1">
                    <mxGeometry x="115" y="560" width="187.5" height="20" as="geometry"/>
                </mxCell>
                <mxCell id="27" value="" style="rounded=0;whiteSpace=wrap;html=1;rotation=90;" vertex="1" parent="1">
                    <mxGeometry x="250" y="560" width="187.5" height="20" as="geometry"/>
                </mxCell>
                <mxCell id="28" value="" style="rounded=0;whiteSpace=wrap;html=1;rotation=90;" vertex="1" parent="1">
                    <mxGeometry x="454.22" y="530.47" width="105.31" height="20" as="geometry"/>
                </mxCell>
                <mxCell id="29" value="" style="rounded=0;whiteSpace=wrap;html=1;rotation=90;" vertex="1" parent="1">
                    <mxGeometry x="634.22" y="530.47" width="65.31" height="20" as="geometry"/>
                </mxCell>
                <mxCell id="30" value="" style="edgeStyle=none;orthogonalLoop=1;jettySize=auto;html=1;endArrow=classic;endFill=1;exitX=0.074;exitY=-0.086;exitDx=0;exitDy=0;exitPerimeter=0;" edge="1" parent="1">
                    <mxGeometry width="80" relative="1" as="geometry">
                        <mxPoint x="219.99999999999977" y="489.9949999999999" as="sourcePoint"/>
                        <mxPoint x="333.28" y="490.3800000000001" as="targetPoint"/>
                        <Array as="points"/>
                    </mxGeometry>
                </mxCell>
                <mxCell id="31" value="&lt;font style=&quot;font-size: 9px;&quot;&gt;Employee views pending&lt;br&gt;requests&lt;br&gt;&lt;/font&gt;" style="edgeLabel;html=1;align=center;verticalAlign=middle;resizable=0;points=[];" vertex="1" connectable="0" parent="30">
                    <mxGeometry x="-0.3343" y="2" relative="1" as="geometry">
                        <mxPoint x="16" y="22" as="offset"/>
                    </mxGeometry>
                </mxCell>
                <mxCell id="32" value="" style="edgeStyle=none;orthogonalLoop=1;jettySize=auto;html=1;endArrow=classic;endFill=1;" edge="1" parent="1">
                    <mxGeometry width="80" relative="1" as="geometry">
                        <mxPoint x="360" y="510" as="sourcePoint"/>
                        <mxPoint x="490" y="510" as="targetPoint"/>
                        <Array as="points"/>
                    </mxGeometry>
                </mxCell>
                <mxCell id="33" value="&lt;font style=&quot;font-size: 9px;&quot;&gt;Requests for adoption requests&lt;br&gt;sent to server&lt;br&gt;&lt;/font&gt;" style="edgeLabel;html=1;align=center;verticalAlign=middle;resizable=0;points=[];" vertex="1" connectable="0" parent="32">
                    <mxGeometry x="-0.3343" y="2" relative="1" as="geometry">
                        <mxPoint x="21" y="-18" as="offset"/>
                    </mxGeometry>
                </mxCell>
                <mxCell id="34" value="" style="edgeStyle=none;orthogonalLoop=1;jettySize=auto;html=1;endArrow=classic;endFill=1;" edge="1" parent="1">
                    <mxGeometry width="80" relative="1" as="geometry">
                        <mxPoint x="520" y="530" as="sourcePoint"/>
                        <mxPoint x="650" y="530" as="targetPoint"/>
                        <Array as="points"/>
                    </mxGeometry>
                </mxCell>
                <mxCell id="35" value="&lt;font style=&quot;font-size: 9px;&quot;&gt;D.B. queried for pending&lt;br&gt;&amp;nbsp;requests&lt;/font&gt;" style="edgeLabel;html=1;align=center;verticalAlign=middle;resizable=0;points=[];" vertex="1" connectable="0" parent="34">
                    <mxGeometry x="-0.3343" y="2" relative="1" as="geometry">
                        <mxPoint x="23" y="-18" as="offset"/>
                    </mxGeometry>
                </mxCell>
                <mxCell id="36" value="" style="edgeStyle=none;orthogonalLoop=1;jettySize=auto;html=1;endArrow=none;endFill=0;startArrow=classic;startFill=1;entryX=0.821;entryY=1.108;entryDx=0;entryDy=0;entryPerimeter=0;" edge="1" parent="1" target="29">
                    <mxGeometry width="80" relative="1" as="geometry">
                        <mxPoint x="520" y="560" as="sourcePoint"/>
                        <mxPoint x="650" y="560" as="targetPoint"/>
                        <Array as="points"/>
                    </mxGeometry>
                </mxCell>
                <mxCell id="37" value="&lt;font style=&quot;font-size: 9px;&quot;&gt;Pending request list returned&lt;/font&gt;" style="edgeLabel;html=1;align=center;verticalAlign=middle;resizable=0;points=[];" vertex="1" connectable="0" parent="36">
                    <mxGeometry x="-0.3343" y="2" relative="1" as="geometry">
                        <mxPoint x="23" y="12" as="offset"/>
                    </mxGeometry>
                </mxCell>
                <mxCell id="38" value="" style="edgeStyle=none;orthogonalLoop=1;jettySize=auto;html=1;endArrow=none;endFill=0;startArrow=classic;startFill=1;" edge="1" parent="1">
                    <mxGeometry width="80" relative="1" as="geometry">
                        <mxPoint x="360" y="580" as="sourcePoint"/>
                        <mxPoint x="490" y="580" as="targetPoint"/>
                        <Array as="points"/>
                    </mxGeometry>
                </mxCell>
                <mxCell id="39" value="&lt;font style=&quot;font-size: 9px;&quot;&gt;List returned to web app&lt;br&gt;&lt;br&gt;&lt;/font&gt;" style="edgeLabel;html=1;align=center;verticalAlign=middle;resizable=0;points=[];" vertex="1" connectable="0" parent="38">
                    <mxGeometry x="-0.3343" y="2" relative="1" as="geometry">
                        <mxPoint x="21" y="22" as="offset"/>
                    </mxGeometry>
                </mxCell>
                <mxCell id="40" value="" style="edgeStyle=none;orthogonalLoop=1;jettySize=auto;html=1;endArrow=none;endFill=0;startArrow=classic;startFill=1;exitX=0.707;exitY=0.002;exitDx=0;exitDy=0;exitPerimeter=0;" edge="1" parent="1" source="26">
                    <mxGeometry width="80" relative="1" as="geometry">
                        <mxPoint x="230" y="611" as="sourcePoint"/>
                        <mxPoint x="330" y="610" as="targetPoint"/>
                        <Array as="points"/>
                    </mxGeometry>
                </mxCell>
                <mxCell id="41" value="&lt;font style=&quot;font-size: 9px;&quot;&gt;Web app displays list of&amp;nbsp;&lt;br&gt;pending requests&lt;br&gt;&lt;/font&gt;" style="edgeLabel;html=1;align=center;verticalAlign=middle;resizable=0;points=[];" vertex="1" connectable="0" parent="40">
                    <mxGeometry x="-0.3343" y="2" relative="1" as="geometry">
                        <mxPoint x="27" y="23" as="offset"/>
                    </mxGeometry>
                </mxCell>
                <mxCell id="42" value="" style="rounded=0;whiteSpace=wrap;html=1;rotation=90;" vertex="1" parent="1">
                    <mxGeometry x="107.03" y="324.14" width="197.5" height="20" as="geometry"/>
                </mxCell>
                <mxCell id="43" value="" style="rounded=0;whiteSpace=wrap;html=1;rotation=90;" vertex="1" parent="1">
                    <mxGeometry x="242.66" y="323.52" width="196.25" height="20" as="geometry"/>
                </mxCell>
                <mxCell id="44" value="" style="rounded=0;whiteSpace=wrap;html=1;rotation=90;" vertex="1" parent="1">
                    <mxGeometry x="437.82" y="313.99" width="132.18" height="20" as="geometry"/>
                </mxCell>
                <mxCell id="45" value="" style="rounded=0;whiteSpace=wrap;html=1;rotation=90;" vertex="1" parent="1">
                    <mxGeometry x="628.28" y="312.27" width="71.25" height="20" as="geometry"/>
                </mxCell>
                <mxCell id="46" value="" style="edgeStyle=none;orthogonalLoop=1;jettySize=auto;html=1;endArrow=classic;endFill=1;exitX=0.074;exitY=-0.086;exitDx=0;exitDy=0;exitPerimeter=0;" edge="1" parent="1" source="42">
                    <mxGeometry width="80" relative="1" as="geometry">
                        <mxPoint x="220.78" y="255.39" as="sourcePoint"/>
                        <mxPoint x="330.78" y="250.39" as="targetPoint"/>
                        <Array as="points"/>
                    </mxGeometry>
                </mxCell>
                <mxCell id="47" value="&lt;font style=&quot;font-size: 9px;&quot;&gt;Employee enters&lt;br&gt;&amp;nbsp;credentials&lt;br&gt;&lt;/font&gt;" style="edgeLabel;html=1;align=center;verticalAlign=middle;resizable=0;points=[];" vertex="1" connectable="0" parent="46">
                    <mxGeometry x="-0.3343" y="2" relative="1" as="geometry">
                        <mxPoint x="16" as="offset"/>
                    </mxGeometry>
                </mxCell>
                <mxCell id="48" value="" style="edgeStyle=none;orthogonalLoop=1;jettySize=auto;html=1;endArrow=classic;endFill=1;entryX=0.113;entryY=1;entryDx=0;entryDy=0;entryPerimeter=0;exitX=0.113;exitY=0.007;exitDx=0;exitDy=0;exitPerimeter=0;" edge="1" parent="1">
                    <mxGeometry width="80" relative="1" as="geometry">
                        <mxPoint x="350.64" y="272.3349999999999" as="sourcePoint"/>
                        <mxPoint x="490.78" y="272.3349999999999" as="targetPoint"/>
                        <Array as="points"/>
                    </mxGeometry>
                </mxCell>
                <mxCell id="49" value="&lt;font size=&quot;1&quot;&gt;Credentials sent to server&lt;/font&gt;" style="edgeLabel;html=1;align=center;verticalAlign=middle;resizable=0;points=[];" vertex="1" connectable="0" parent="48">
                    <mxGeometry x="-0.3343" y="2" relative="1" as="geometry">
                        <mxPoint x="23" as="offset"/>
                    </mxGeometry>
                </mxCell>
                <mxCell id="50" value="" style="edgeStyle=none;orthogonalLoop=1;jettySize=auto;html=1;endArrow=classic;endFill=1;entryX=0.113;entryY=1;entryDx=0;entryDy=0;entryPerimeter=0;exitX=0.113;exitY=0.007;exitDx=0;exitDy=0;exitPerimeter=0;" edge="1" parent="1">
                    <mxGeometry width="80" relative="1" as="geometry">
                        <mxPoint x="513.9000000000001" y="305.39499999999987" as="sourcePoint"/>
                        <mxPoint x="654.04" y="305.39499999999987" as="targetPoint"/>
                        <Array as="points"/>
                    </mxGeometry>
                </mxCell>
                <mxCell id="51" value="&lt;font size=&quot;1&quot;&gt;Requests a match from&lt;br&gt;database&lt;br&gt;&lt;/font&gt;" style="edgeLabel;html=1;align=center;verticalAlign=middle;resizable=0;points=[];" vertex="1" connectable="0" parent="50">
                    <mxGeometry x="-0.3343" y="2" relative="1" as="geometry">
                        <mxPoint x="23" y="-18" as="offset"/>
                    </mxGeometry>
                </mxCell>
                <mxCell id="52" value="" style="edgeStyle=none;orthogonalLoop=1;jettySize=auto;html=1;endArrow=none;endFill=0;entryX=0.113;entryY=1;entryDx=0;entryDy=0;entryPerimeter=0;exitX=0.113;exitY=0.007;exitDx=0;exitDy=0;exitPerimeter=0;startArrow=classic;startFill=1;" edge="1" parent="1">
                    <mxGeometry width="80" relative="1" as="geometry">
                        <mxPoint x="513.9000000000001" y="335.39499999999987" as="sourcePoint"/>
                        <mxPoint x="654.04" y="335.39499999999987" as="targetPoint"/>
                        <Array as="points"/>
                    </mxGeometry>
                </mxCell>
                <mxCell id="53" value="&lt;font size=&quot;1&quot;&gt;Response with user data&lt;br&gt;or an error&lt;br&gt;&lt;/font&gt;" style="edgeLabel;html=1;align=center;verticalAlign=middle;resizable=0;points=[];" vertex="1" connectable="0" parent="52">
                    <mxGeometry x="-0.3343" y="2" relative="1" as="geometry">
                        <mxPoint x="23" y="22" as="offset"/>
                    </mxGeometry>
                </mxCell>
                <mxCell id="54" value="" style="edgeStyle=none;orthogonalLoop=1;jettySize=auto;html=1;endArrow=none;endFill=0;entryX=0.113;entryY=1;entryDx=0;entryDy=0;entryPerimeter=0;exitX=0.113;exitY=0.007;exitDx=0;exitDy=0;exitPerimeter=0;startArrow=classic;startFill=1;" edge="1" parent="1">
                    <mxGeometry width="80" relative="1" as="geometry">
                        <mxPoint x="350.78" y="367.6049999999999" as="sourcePoint"/>
                        <mxPoint x="490.91999999999985" y="367.6049999999999" as="targetPoint"/>
                        <Array as="points"/>
                    </mxGeometry>
                </mxCell>
                <mxCell id="55" value="&lt;font size=&quot;1&quot;&gt;Send result&lt;br&gt;(success/fail)&lt;br&gt;to web app&lt;br&gt;&lt;/font&gt;" style="edgeLabel;html=1;align=center;verticalAlign=middle;resizable=0;points=[];" vertex="1" connectable="0" parent="54">
                    <mxGeometry x="-0.3343" y="2" relative="1" as="geometry">
                        <mxPoint x="23" as="offset"/>
                    </mxGeometry>
                </mxCell>
                <mxCell id="56" value="" style="edgeStyle=none;orthogonalLoop=1;jettySize=auto;html=1;endArrow=none;endFill=0;exitX=0.817;exitY=0.057;exitDx=0;exitDy=0;exitPerimeter=0;startArrow=classic;startFill=1;" edge="1" parent="1" source="42">
                    <mxGeometry width="80" relative="1" as="geometry">
                        <mxPoint x="220.78000000000003" y="395.39" as="sourcePoint"/>
                        <mxPoint x="330.78" y="395.39" as="targetPoint"/>
                        <Array as="points"/>
                    </mxGeometry>
                </mxCell>
                <mxCell id="57" value="&lt;font style=&quot;font-size: 9px;&quot;&gt;Display result/login &lt;br&gt;to Employee&lt;/font&gt;" style="edgeLabel;html=1;align=center;verticalAlign=middle;resizable=0;points=[];" vertex="1" connectable="0" parent="56">
                    <mxGeometry x="-0.3343" y="2" relative="1" as="geometry">
                        <mxPoint x="14" y="-9" as="offset"/>
                    </mxGeometry>
                </mxCell>
                <mxCell id="73" value="" style="rounded=0;whiteSpace=wrap;html=1;rotation=90;" vertex="1" parent="1">
                    <mxGeometry x="115" y="770.01" width="187.5" height="20" as="geometry"/>
                </mxCell>
                <mxCell id="74" value="" style="rounded=0;whiteSpace=wrap;html=1;rotation=90;" vertex="1" parent="1">
                    <mxGeometry x="250" y="770.01" width="187.5" height="20" as="geometry"/>
                </mxCell>
                <mxCell id="75" value="" style="rounded=0;whiteSpace=wrap;html=1;rotation=90;" vertex="1" parent="1">
                    <mxGeometry x="454.22" y="740.48" width="105.31" height="20" as="geometry"/>
                </mxCell>
                <mxCell id="76" value="" style="rounded=0;whiteSpace=wrap;html=1;rotation=90;" vertex="1" parent="1">
                    <mxGeometry x="634.22" y="740.48" width="65.31" height="20" as="geometry"/>
                </mxCell>
                <mxCell id="77" value="" style="edgeStyle=none;orthogonalLoop=1;jettySize=auto;html=1;endArrow=classic;endFill=1;exitX=0.074;exitY=-0.086;exitDx=0;exitDy=0;exitPerimeter=0;" edge="1" parent="1">
                    <mxGeometry width="80" relative="1" as="geometry">
                        <mxPoint x="219.99999999999977" y="700.0049999999999" as="sourcePoint"/>
                        <mxPoint x="333.28" y="700.3900000000001" as="targetPoint"/>
                        <Array as="points"/>
                    </mxGeometry>
                </mxCell>
                <mxCell id="78" value="&lt;font style=&quot;font-size: 9px;&quot;&gt;Employee reviews&amp;nbsp;&lt;br&gt;application and&lt;br&gt;sends acception&lt;br&gt;or rejection&lt;br&gt;&lt;/font&gt;" style="edgeLabel;html=1;align=center;verticalAlign=middle;resizable=0;points=[];" vertex="1" connectable="0" parent="77">
                    <mxGeometry x="-0.3343" y="2" relative="1" as="geometry">
                        <mxPoint x="16" y="32" as="offset"/>
                    </mxGeometry>
                </mxCell>
                <mxCell id="79" value="" style="edgeStyle=none;orthogonalLoop=1;jettySize=auto;html=1;endArrow=classic;endFill=1;" edge="1" parent="1">
                    <mxGeometry width="80" relative="1" as="geometry">
                        <mxPoint x="360" y="720.01" as="sourcePoint"/>
                        <mxPoint x="490" y="720.01" as="targetPoint"/>
                        <Array as="points"/>
                    </mxGeometry>
                </mxCell>
                <mxCell id="80" value="&lt;font style=&quot;font-size: 9px;&quot;&gt;Web app sends accept/reject&lt;br&gt;&lt;/font&gt;" style="edgeLabel;html=1;align=center;verticalAlign=middle;resizable=0;points=[];" vertex="1" connectable="0" parent="79">
                    <mxGeometry x="-0.3343" y="2" relative="1" as="geometry">
                        <mxPoint x="21" y="-18" as="offset"/>
                    </mxGeometry>
                </mxCell>
                <mxCell id="81" value="" style="edgeStyle=none;orthogonalLoop=1;jettySize=auto;html=1;endArrow=classic;endFill=1;" edge="1" parent="1">
                    <mxGeometry width="80" relative="1" as="geometry">
                        <mxPoint x="520" y="740.01" as="sourcePoint"/>
                        <mxPoint x="650" y="740.01" as="targetPoint"/>
                        <Array as="points"/>
                    </mxGeometry>
                </mxCell>
                <mxCell id="82" value="&lt;font size=&quot;1&quot;&gt;Server processes &lt;br&gt;approval/rejection &lt;br&gt;and updates the database&lt;/font&gt;" style="edgeLabel;html=1;align=center;verticalAlign=middle;resizable=0;points=[];" vertex="1" connectable="0" parent="81">
                    <mxGeometry x="-0.3343" y="2" relative="1" as="geometry">
                        <mxPoint x="23" y="-28" as="offset"/>
                    </mxGeometry>
                </mxCell>
                <mxCell id="83" value="" style="edgeStyle=none;orthogonalLoop=1;jettySize=auto;html=1;endArrow=none;endFill=0;startArrow=classic;startFill=1;entryX=0.821;entryY=1.108;entryDx=0;entryDy=0;entryPerimeter=0;" edge="1" parent="1" target="76">
                    <mxGeometry width="80" relative="1" as="geometry">
                        <mxPoint x="520" y="770.01" as="sourcePoint"/>
                        <mxPoint x="650" y="770.01" as="targetPoint"/>
                        <Array as="points"/>
                    </mxGeometry>
                </mxCell>
                <mxCell id="84" value="&lt;font style=&quot;font-size: 9px;&quot;&gt;Database sends success/fail&lt;br&gt;&lt;/font&gt;" style="edgeLabel;html=1;align=center;verticalAlign=middle;resizable=0;points=[];" vertex="1" connectable="0" parent="83">
                    <mxGeometry x="-0.3343" y="2" relative="1" as="geometry">
                        <mxPoint x="23" y="12" as="offset"/>
                    </mxGeometry>
                </mxCell>
                <mxCell id="85" value="" style="edgeStyle=none;orthogonalLoop=1;jettySize=auto;html=1;endArrow=none;endFill=0;startArrow=classic;startFill=1;" edge="1" parent="1">
                    <mxGeometry width="80" relative="1" as="geometry">
                        <mxPoint x="360" y="790.01" as="sourcePoint"/>
                        <mxPoint x="490" y="790.01" as="targetPoint"/>
                        <Array as="points"/>
                    </mxGeometry>
                </mxCell>
                <mxCell id="86" value="&lt;font style=&quot;font-size: 9px;&quot;&gt;Server sends confirmation&lt;br&gt;to Web App&lt;br&gt;&lt;/font&gt;" style="edgeLabel;html=1;align=center;verticalAlign=middle;resizable=0;points=[];" vertex="1" connectable="0" parent="85">
                    <mxGeometry x="-0.3343" y="2" relative="1" as="geometry">
                        <mxPoint x="21" y="22" as="offset"/>
                    </mxGeometry>
                </mxCell>
                <mxCell id="87" value="" style="edgeStyle=none;orthogonalLoop=1;jettySize=auto;html=1;endArrow=none;endFill=0;startArrow=classic;startFill=1;exitX=0.707;exitY=0.002;exitDx=0;exitDy=0;exitPerimeter=0;" edge="1" parent="1" source="73">
                    <mxGeometry width="80" relative="1" as="geometry">
                        <mxPoint x="230" y="821.01" as="sourcePoint"/>
                        <mxPoint x="330" y="820.01" as="targetPoint"/>
                        <Array as="points"/>
                    </mxGeometry>
                </mxCell>
                <mxCell id="88" value="&lt;font style=&quot;font-size: 9px;&quot;&gt;Web App diplays new&amp;nbsp;&lt;br&gt;form result to Employee&lt;br&gt;&lt;/font&gt;" style="edgeLabel;html=1;align=center;verticalAlign=middle;resizable=0;points=[];" vertex="1" connectable="0" parent="87">
                    <mxGeometry x="-0.3343" y="2" relative="1" as="geometry">
                        <mxPoint x="24" y="23" as="offset"/>
                    </mxGeometry>
                </mxCell>
            </root>
        </mxGraphModel>
    </diagram>
</mxfile>